<?xml version="1.0" encoding="UTF-8" standalone="no"?>
<!-- Created with Inkscape (http://www.inkscape.org/) -->

<svg
   xmlns:dc="http://purl.org/dc/elements/1.1/"
   xmlns:cc="http://creativecommons.org/ns#"
   xmlns:rdf="http://www.w3.org/1999/02/22-rdf-syntax-ns#"
   xmlns:svg="http://www.w3.org/2000/svg"
   xmlns="http://www.w3.org/2000/svg"
   xmlns:sodipodi="http://sodipodi.sourceforge.net/DTD/sodipodi-0.dtd"
   xmlns:inkscape="http://www.inkscape.org/namespaces/inkscape"
   version="1.1"
   id="svg12163"
   xml:space="preserve"
   width="800"
   height="800"
   viewBox="0 0 800 800"
   sodipodi:docname="razor-and-scissors-publicdomainvectors.org.svg"
   inkscape:version="0.92.4 (5da689c313, 2019-01-14)"><metadata
     id="metadata12169"><rdf:RDF><cc:Work
         rdf:about=""><dc:format>image/svg+xml</dc:format><dc:type
           rdf:resource="http://purl.org/dc/dcmitype/StillImage" /><dc:title></dc:title></cc:Work></rdf:RDF></metadata><defs
     id="defs12167"><clipPath
       clipPathUnits="userSpaceOnUse"
       id="clipPath12179"><path
         d="M 0,600 H 600 V 0 H 0 Z"
         id="path12177"
         inkscape:connector-curvature="0" /></clipPath></defs><sodipodi:namedview
     pagecolor="#ffffff"
     bordercolor="#666666"
     borderopacity="1"
     objecttolerance="10"
     gridtolerance="10"
     guidetolerance="10"
     inkscape:pageopacity="0"
     inkscape:pageshadow="2"
     inkscape:window-width="1920"
     inkscape:window-height="1018"
     id="namedview12165"
     showgrid="false"
     inkscape:zoom="0.93105948"
     inkscape:cx="403.38983"
     inkscape:cy="438.98305"
     inkscape:window-x="-8"
     inkscape:window-y="-8"
     inkscape:window-maximized="1"
     inkscape:current-layer="g12171" /><g
     id="g12171"
     inkscape:groupmode="layer"
     inkscape:label="razor-and-scissors-publicdomainvectors.org"
     transform="matrix(1.3333333,0,0,-1.3333333,0,800)"><g
       id="g12173"><g
         id="g12175"
         clip-path="url(#clipPath12179)"><path
           d="m 289.474,319.381 c 3.921,-4.36 6.162,-6.854 6.162,-6.854 0,0 -2.377,2.362 -6.538,6.497 -4.12,4.174 -10.085,10.058 -17.098,17.258 -7.008,7.207 -15.271,15.53 -23.964,24.601 -8.699,9.062 -17.978,18.732 -27.259,28.4 -9.192,9.752 -18.385,19.501 -27.003,28.643 -8.622,9.138 -16.524,17.803 -23.373,25.161 -6.781,7.423 -12.43,13.607 -16.385,17.935 -3.922,4.362 -6.163,6.856 -6.163,6.856 0,0 2.377,-2.363 6.537,-6.497 4.127,-4.166 10.022,-10.118 17.096,-17.261 7.008,-7.207 15.267,-15.533 23.965,-24.599 8.699,-9.065 17.979,-18.731 27.26,-28.399 9.192,-9.748 18.386,-19.501 27.005,-28.644 8.627,-9.132 16.524,-17.803 23.373,-25.16 6.841,-7.362 12.422,-13.615 16.385,-17.937 m 269.899,135.698 c -4.793,0 -8.679,3.886 -8.679,8.68 0,4.794 3.886,8.681 8.679,8.681 4.795,0 8.68,-3.887 8.68,-8.681 0,-4.794 -3.885,-8.68 -8.68,-8.68 m -22.701,18.362 C 513.531,433.615 410.439,319.912 358.025,263.313 l -3.774,3.017 c 55.283,59.813 152.176,167.361 174.491,205.771 8.181,14.075 18.97,22.572 28.984,22.903 -7.167,-3.486 -14.603,-10.461 -21.054,-21.563 M 412.651,216.227 c -0.86,-10.33 -3.617,-26.414 -7.774,-30.159 -3.381,3.525 -17.471,18.215 -37.627,39.232 3.805,3.448 9.229,8.387 15.901,14.508 z m -50.914,19.18 c -4.794,0 -8.681,3.888 -8.681,8.682 0,4.794 3.887,8.679 8.681,8.679 4.794,0 8.68,-3.885 8.68,-8.679 0,-4.794 -3.886,-8.682 -8.68,-8.682 m -6.326,-13.647 -30.299,13.337 c 3.848,4.07 8.716,9.256 14.36,15.307 1.12,-1.166 2.225,-2.32 3.326,-3.467 -5.209,-5.572 -9.315,-9.932 -11.996,-12.753 l 25.076,-11.985 c -0.157,-0.149 -0.328,-0.309 -0.467,-0.439 m -219.742,245.024 17.409,34.711 162.316,-176.281 -11.247,-22.249 52.06,-41.616 c -4.248,-4.584 -8.128,-8.755 -11.584,-12.456 -70.536,73.545 -180.572,188.28 -208.954,217.891 M 319.541,403.97 c 11.987,11.653 30.105,12.45 40.474,1.789 10.365,-10.665 9.049,-28.758 -2.938,-40.406 -11.987,-11.654 -30.105,-12.452 -40.473,-1.79 -10.366,10.665 -9.05,28.755 2.937,40.407 m 249.118,93.736 c -3.048,1.737 -6.543,2.672 -10.324,2.672 -12.289,0 -24.756,-9.33 -34.208,-25.597 C 501.986,436.68 405.159,329.259 350.07,269.671 l -42.56,34.025 11.101,21.967 -27.587,29.961 8.334,7.648 c 14.69,-23.594 55.251,-25.372 72.112,2.504 15.817,26.157 -1.836,63.263 -35.166,58.031 -4.434,-0.697 -24.29,7.235 -24.425,3.206 -0.668,-19.841 -17.528,-50.721 -17.528,-50.721 l -12.125,-11.115 -129.803,140.969 -19.984,-39.847 0.653,-0.68 c 17.258,-18.01 68.039,-70.964 121.022,-126.211 l -7.836,-7.183 -26.375,13.019 c 0,0 -2.003,-2.639 -5.547,-7.312 5.593,-7.381 14.199,-18.751 24.592,-32.52 10.682,11.305 17.233,18.244 17.233,18.244 l 6.936,6.364 c 25.24,-26.32 50.574,-52.735 72.652,-75.755 -7.089,-7.603 -12.948,-13.828 -17.142,-18.244 l -2.616,-2.752 40.475,-17.819 1.286,1.2 c 0.128,0.12 1.276,1.193 3.278,3.078 l 0.019,-0.01 c 0,0 1.489,1.334 4.202,3.789 23.265,-24.26 38.458,-40.101 38.458,-40.101 l 0.682,-0.712 0.879,0.443 c 7.576,3.787 9.846,30.549 10.079,33.587 l 0.054,0.703 -30.282,24.207 c 46.965,43.154 149.431,139.358 185.904,190.014 27.935,38.8 16.73,65.976 -2.386,66.058 m -356.1,-199.867 c -4.955,0 -9.04,3.682 -9.693,8.457 h 19.384 c -0.651,-4.775 -4.737,-8.457 -9.691,-8.457 m 0,19.587 c 4.954,0 9.04,-3.683 9.691,-8.459 h -19.384 c 0.654,4.776 4.738,8.459 9.693,8.459 M 109.877,364.78 c -0.352,-0.414 -0.715,-0.822 -1.098,-1.217 -10.369,-10.662 -28.486,-9.864 -40.473,1.79 -11.986,11.648 -13.302,29.741 -2.936,40.406 0.249,0.256 0.522,0.472 0.779,0.715 10.472,9.871 27.995,8.87 39.694,-2.504 11.542,-11.22 13.184,-28.408 4.034,-39.19 m 95.602,-19.536 -26.374,-13.019 -48.074,44.067 c 0,0 -6.824,33.366 -31.728,44.477 l 0.074,0.141 c 0,0 -1.26,0.599 -3.465,1.653 -1.241,0.511 -2.746,1.133 -4.474,1.846 -1.5,0.521 -3.168,1.157 -4.981,1.756 -0.212,0.069 -0.416,0.14 -0.634,0.209 -4.126,1.32 -8.952,2.711 -14.186,3.871 -2.605,0.63 -5.337,1.1 -8.09,1.647 -2.784,0.418 -5.579,0.96 -8.426,1.248 -2.829,0.38 -5.676,0.635 -8.485,0.816 -2.797,0.263 -5.594,0.201 -8.267,0.31 -2.698,-0.116 -5.289,-0.071 -7.758,-0.328 -2.469,-0.253 -4.796,-0.407 -6.935,-0.867 -2.143,-0.355 -4.095,-0.719 -5.801,-1.266 -1.708,-0.496 -3.21,-0.836 -4.387,-1.394 -2.374,-0.975 -3.73,-1.533 -3.73,-1.533 l 1.648,-3.683 c 0,0 1.259,0.409 3.459,1.121 1.067,0.429 2.49,0.632 4.075,0.963 1.57,0.386 3.404,0.586 5.412,0.767 1.981,0.281 4.19,0.253 6.499,0.321 2.31,0.073 4.778,-0.159 7.3,-0.235 2.536,-0.3 5.152,-0.426 7.797,-0.88 2.653,-0.367 5.333,-0.81 8,-1.377 2.677,-0.47 5.316,-1.194 7.925,-1.784 2.28,-0.635 4.525,-1.219 6.695,-1.882 0.287,-0.088 0.587,-0.165 0.871,-0.256 0.154,-0.045 0.296,-0.095 0.447,-0.142 -3.857,-1.581 -7.269,-3.862 -10.19,-6.649 -12.367,-11.802 -15.819,-32.79 -5.782,-49.386 15.599,-25.791 51.47,-26.183 68.384,-7.414 1.369,1.519 2.627,3.145 3.725,4.91 l 0.346,-0.317 42.833,-39.299 c 0,0 7.313,-7.746 19.082,-20.201 C 146.162,247.656 74.793,152.615 56.32,124.904 c -3.673,-5.508 -0.944,-10.725 7.566,-3.337 5.794,5.033 93.886,98.001 148.805,156.069 54.919,-58.068 143.011,-151.036 148.804,-156.069 5.618,-4.876 8.714,-4.26 9.114,-1.694 0.207,1.321 -0.299,3.159 -1.546,5.031 -26.668,40.004 -163.584,220.34 -163.584,220.34"
           style="fill:#110f0d;fill-opacity:1;fill-rule:nonzero;stroke:none"
           id="path12181"
           inkscape:connector-curvature="0" /></g></g></g></svg>